<?xml version="1.0" encoding="utf-8"?>
<!-- Generator: Adobe Illustrator 16.0.0, SVG Export Plug-In . SVG Version: 6.00 Build 0)  -->
<!DOCTYPE svg PUBLIC "-//W3C//DTD SVG 1.1//EN" "http://www.w3.org/Graphics/SVG/1.1/DTD/svg11.dtd">
<svg version="1.1" id="Layer_1" xmlns="http://www.w3.org/2000/svg" xmlns:xlink="http://www.w3.org/1999/xlink" x="0px" y="0px"
	 width="206.93px" height="206.93px" viewBox="0 0 206.93 206.93" enable-background="new 0 0 206.93 206.93" xml:space="preserve">
<g>
	<g>
		<path fill="#FF6470" d="M205.741,103.465c0-56.486-45.791-102.276-102.276-102.276S1.19,46.979,1.19,103.465
			c0,56.485,45.79,102.274,102.275,102.274S205.741,159.95,205.741,103.465"/>
		<path fill="#FF6470" d="M205.741,103.465c0-56.486-45.791-102.276-102.276-102.276S1.19,46.979,1.19,103.465
			c0,56.485,45.79,102.274,102.275,102.274S205.741,159.95,205.741,103.465"/>
	</g>
	<g>
		<defs>
			<path id="SVGID_1_" d="M1.189,103.465c0,56.485,45.792,102.276,102.275,102.276c56.486,0,102.276-45.791,102.276-102.276
				c0-56.486-45.79-102.276-102.276-102.276C46.981,1.189,1.189,46.979,1.189,103.465"/>
		</defs>
		<clipPath id="SVGID_2_">
			<use xlink:href="#SVGID_1_"  overflow="visible"/>
		</clipPath>
		<path clip-path="url(#SVGID_2_)" fill="#BEB3B8" d="M161.718,179.945c-1.008-7.086-2.058-13.566-4.989-20.365
			c-3.223-7.473-9.466-22.073-17.024-25.461c-5.304,3.112-11.773,3.636-17.656,5.401c-5.354,1.606-14.896,2.99-19.406,7.548
			c-4.51-4.558-14.054-5.941-19.407-7.548c-5.883-1.766-12.353-2.289-17.655-5.401c-7.56,3.388-13.802,17.988-17.025,25.461
			c-2.932,6.799-3.981,13.279-4.989,20.365c-0.688,4.83-3.354,12.863,0.771,16.74c3.787,3.557,9.042,11.338,13.81,11.898
			c6.588,0.773,8.882,9.436,15.514,9.799c7.737,0.422,21.115,2.244,28.581,1.633c7.465,0.611,20.027-1.211,27.763-1.633
			c6.633-0.363,15.46-4.125,22.048-4.9c4.767-0.559,8.461-7.057,12.248-10.615C168.425,198.991,162.406,184.775,161.718,179.945"/>
		<path clip-path="url(#SVGID_2_)" fill="#E0DBDD" d="M95.195,80.089C90.157,69.615,83.517,57.545,74.81,49.029
			c-4.328-4.233-16.385-13.389-22.938-12.207c-6.742,1.214,2.799,16.604,4.898,20.74c4.862,9.574,10.462,18.338,17.681,26.204
			c2.942,3.21,5.741,8.956,10.064,6.096C87.204,88.082,92.078,82.865,95.195,80.089"/>
	</g>
	<g>
		<defs>
			<path id="SVGID_3_" d="M51.871,36.821c-6.742,1.216,2.799,16.604,4.899,20.74c4.862,9.576,10.463,18.338,17.68,26.205
				c2.943,3.209,5.743,8.956,10.066,6.095c2.687-1.778,7.562-6.994,10.678-9.771C90.157,69.616,83.517,57.545,74.81,49.028
				c-4.069-3.979-14.972-12.311-21.707-12.312C52.674,36.716,52.264,36.75,51.871,36.821"/>
		</defs>
		<clipPath id="SVGID_4_">
			<use xlink:href="#SVGID_3_"  overflow="visible"/>
		</clipPath>
		<path clip-path="url(#SVGID_4_)" fill="#F0BBBB" d="M46.304,43.642c13.015,4.243,24.346,16.385,29.896,28.521
			c2.217,4.847,3.846,9.686,3.935,14.948c0.047,2.739-0.136,5.898-2.045,8.063c-5.072,5.748-10.278-3.684-13.37-7.53
			C57.698,78.91,53.226,68.868,48.5,58.834C46.599,54.794,43.614,48.068,46.304,43.642"/>
	</g>
	<g>
		<defs>
			<path id="SVGID_5_" d="M1.189,103.465c0,56.485,45.792,102.276,102.275,102.276c56.486,0,102.276-45.791,102.276-102.276
				c0-56.486-45.79-102.276-102.276-102.276C46.981,1.189,1.189,46.979,1.189,103.465"/>
		</defs>
		<clipPath id="SVGID_6_">
			<use xlink:href="#SVGID_5_"  overflow="visible"/>
		</clipPath>
		<path clip-path="url(#SVGID_6_)" fill="#C9C0C4" d="M121.818,146.064c-0.535-3.015-2.346-5.732-4.02-8.224
			c-2.483-3.692-9.083-15.887-14.533-13.242c-0.226,0.11-0.426,0.247-0.624,0.387c-0.197-0.14-0.396-0.276-0.623-0.387
			c-5.45-2.645-12.05,9.55-14.533,13.242c-1.674,2.491-3.483,5.209-4.02,8.224c-0.25,1.406,0.142,2.869-0.578,3.658
			c0.901,3.211,6.277,5.822,9.237,6.496c2.17,0.494,7.342,1.525,10.518,1.525c3.175,0,8.348-1.031,10.518-1.525
			c2.96-0.674,8.335-3.285,9.236-6.496C121.676,148.933,122.068,147.47,121.818,146.064"/>
		<path clip-path="url(#SVGID_6_)" fill="#FFFFFF" d="M97.066,135.959c-0.545,2.788-1.239,5.578-1.773,8.376
			c-0.411,2.156-1.019,4.783-0.075,6.852c0.508,1.115,0.823,1.375,2.042,1.469c0.844,0.064,1.692,0.078,2.532,0.154
			c0.754,0.066,1.631,0.354,2.214-0.223c0.966-0.953,0.878-3.143,0.979-4.387c0.276-3.355,0.159-6.74,0.358-10.1
			c0.082-1.387,0.09-2.695-1.552-3.17C100.41,134.531,98.016,134.608,97.066,135.959"/>
		<path clip-path="url(#SVGID_6_)" fill="#FFFFFF" d="M102.771,135.473c0,1.8,0.259,3.566,0.277,5.357
			c0.018,1.584,0.012,3.112,0.279,4.677c0.199,1.166,0.364,2.332,0.557,3.496c0.106,0.646,0.152,1.641,0.61,2.141
			c0.785,0.859,2.839,0.525,3.808,0.25c0.908-0.256,1.558-0.564,1.771-1.445c0.274-1.131,0.046-2.289-0.063-3.418
			c-0.15-1.531-0.397-3.068-0.704-4.57c-0.307-1.5-0.593-3.016-1.06-4.479c-0.212-0.668-0.471-1.549-1.04-2.014
			C106.292,134.721,104.031,134.632,102.771,135.473"/>
		<path clip-path="url(#SVGID_6_)" fill="#E0DBDD" d="M110.088,80.089c5.038-10.474,11.678-22.544,20.385-31.061
			c4.328-4.233,16.386-13.389,22.938-12.207c6.742,1.214-2.799,16.604-4.899,20.74c-4.861,9.574-10.462,18.338-17.68,26.204
			c-2.943,3.21-5.742,8.956-10.065,6.096C118.079,88.082,113.205,82.865,110.088,80.089"/>
	</g>
	<g>
		<defs>
			<path id="SVGID_7_" d="M130.474,49.028c-8.707,8.518-15.349,20.589-20.386,31.062c3.116,2.777,7.991,7.993,10.679,9.771
				c4.324,2.861,7.123-2.886,10.065-6.095c7.218-7.867,12.817-16.629,17.681-26.205c2.1-4.136,11.641-19.524,4.898-20.74
				c-0.392-0.07-0.803-0.104-1.23-0.104C145.445,36.717,134.542,45.049,130.474,49.028"/>
		</defs>
		<clipPath id="SVGID_8_">
			<use xlink:href="#SVGID_7_"  overflow="visible"/>
		</clipPath>
		<path clip-path="url(#SVGID_8_)" fill="#F0BBBB" d="M158.98,43.642c-13.016,4.243-24.347,16.385-29.896,28.521
			c-2.217,4.847-3.845,9.686-3.934,14.948c-0.047,2.739,0.135,5.898,2.045,8.063c5.072,5.748,10.278-3.684,13.37-7.53
			c7.021-8.733,11.493-18.775,16.218-28.81C158.685,54.794,161.669,48.068,158.98,43.642"/>
	</g>
	<g>
		<defs>
			<path id="SVGID_9_" d="M1.189,103.465c0,56.485,45.792,102.276,102.275,102.276c56.486,0,102.276-45.791,102.276-102.276
				c0-56.486-45.79-102.276-102.276-102.276C46.981,1.189,1.189,46.979,1.189,103.465"/>
		</defs>
		<clipPath id="SVGID_10_">
			<use xlink:href="#SVGID_9_"  overflow="visible"/>
		</clipPath>
		<path clip-path="url(#SVGID_10_)" fill="#D9D2D5" d="M143.827,124.434c-2.206-6.462-7.595-10.709-11.814-16.077
			c-4.565-5.805-2.816-14.016-6.317-20.374c-2.421-4.395-5.729-8.933-10.381-10.962c-3.518-1.536-7.159-2.065-10.911-2.231
			c-0.004-0.022-0.007-0.049-0.012-0.07c-0.586,0-1.169,0.005-1.75,0.015c-0.581-0.01-1.164-0.015-1.75-0.015
			c-0.005,0.021-0.008,0.048-0.013,0.07c-3.751,0.166-7.393,0.695-10.911,2.231c-4.651,2.029-7.96,6.567-10.38,10.962
			c-3.501,6.358-1.313,14.762-5.877,20.568c-4.222,5.368-9.416,8.84-11.622,15.302c-1.976,5.788-2.271,13.414,1.355,18.401
			c4.122,5.669,10.288,9.169,16.885,9.886c11.16,1.213,19.146-6.342,22.313-15.983c3.167,9.642,11.152,17.196,22.312,15.983
			c6.598-0.717,12.428-4.605,16.551-10.274C145.129,136.88,145.803,130.222,143.827,124.434"/>
		<path clip-path="url(#SVGID_10_)" fill="#231F20" d="M91.279,106.439c0-2.765-2.241-5.006-5.006-5.006
			c-2.766,0-5.008,2.241-5.008,5.006s2.242,5.006,5.008,5.006C89.037,111.445,91.279,109.203,91.279,106.439"/>
		<path clip-path="url(#SVGID_10_)" fill="#FFFFFF" d="M87.846,106.439c0-0.869-0.705-1.574-1.574-1.574s-1.574,0.705-1.574,1.574
			s0.705,1.574,1.574,1.574S87.846,107.308,87.846,106.439"/>
		<path clip-path="url(#SVGID_10_)" fill="#231F20" d="M113.356,106.439c0-2.765,2.24-5.006,5.006-5.006
			c2.765,0,5.007,2.241,5.007,5.006s-2.242,5.006-5.007,5.006C115.596,111.445,113.356,109.203,113.356,106.439"/>
		<path clip-path="url(#SVGID_10_)" fill="#FFFFFF" d="M116.787,106.439c0-0.869,0.705-1.574,1.574-1.574
			c0.87,0,1.575,0.705,1.575,1.574s-0.705,1.574-1.575,1.574C117.492,108.013,116.787,107.308,116.787,106.439"/>
		<path clip-path="url(#SVGID_10_)" fill="#E38383" d="M102.753,131.365c-0.027-1.551-1.751-2.764-2.889-3.526
			c-0.761-0.509-1.62-0.81-2.346-1.378c-0.419-0.329-1.409-1.274-1.146-1.867c0.409-0.917,3.049-0.638,3.804-0.638
			c1.631,0,3.296-0.095,4.91-0.032c0.964,0.037,4.864-0.406,4.106,1.539c-0.659,1.692-3.301,2.319-4.628,3.316
			c-0.574,0.431-1.125,0.927-1.42,1.588C102.963,130.778,103.001,131.409,102.753,131.365"/>
		<g opacity="0.2" clip-path="url(#SVGID_10_)">
			<g>
				<defs>
					<rect id="SVGID_11_" x="42.082" y="36.717" width="62.607" height="183.423"/>
				</defs>
				<clipPath id="SVGID_12_">
					<use xlink:href="#SVGID_11_"  overflow="visible"/>
				</clipPath>
				<path clip-path="url(#SVGID_12_)" fill="#FFFFFF" d="M104.69,74.807c-0.096-0.005-0.19-0.014-0.286-0.018
					c-0.004-0.023-0.007-0.048-0.012-0.071c-0.586,0-1.169,0.006-1.75,0.017c-0.581-0.011-1.164-0.017-1.75-0.017
					c-0.005,0.023-0.008,0.048-0.013,0.071c-2.639,0.116-5.22,0.422-7.744,1.122c-4.75-9.391-10.756-19.479-18.325-26.883
					c-4.328-4.233-16.384-13.389-22.938-12.207c-3.205,0.577-2.728,4.358-1.122,8.611c0.658,2.184,5.646,11.233,7.549,15.273
					c4.725,10.034,16.306,23.655,20.67,28.555c-2.067,5.053-1.455,14.622-5.258,19.29c-4.313,5.293-9.415,8.839-11.621,15.302
					c-1.402,4.107-1.948,9.137-0.857,13.495c-5.578,5.708-10.097,16.247-12.677,22.231c-2.933,6.799-3.982,13.281-4.99,20.367
					c-0.687,4.83-3.354,12.863,0.772,16.738c3.786,3.557,9.042,11.338,13.808,11.898c6.588,0.773,8.882,9.438,15.515,9.799
					c7.737,0.422,21.114,2.244,28.58,1.633c0.763,0.063,1.591,0.094,2.45,0.109V74.807z"/>
			</g>
		</g>
	</g>
</g>
</svg>
