<?xml version="1.0" encoding="utf-8"?>
<!-- Generator: Adobe Illustrator 16.0.0, SVG Export Plug-In . SVG Version: 6.00 Build 0)  -->
<!DOCTYPE svg PUBLIC "-//W3C//DTD SVG 1.1//EN" "http://www.w3.org/Graphics/SVG/1.1/DTD/svg11.dtd">
<svg version="1.1" id="Layer_1" xmlns="http://www.w3.org/2000/svg" xmlns:xlink="http://www.w3.org/1999/xlink" x="0px" y="0px"
	 width="206.93px" height="206.93px" viewBox="0 0 206.93 206.93" enable-background="new 0 0 206.93 206.93" xml:space="preserve">
<g>
	<g>
		<path fill="#4DCDFF" d="M205.741,103.465c0-56.486-45.791-102.276-102.276-102.276S1.19,46.979,1.19,103.465
			s45.79,102.276,102.275,102.276S205.741,159.951,205.741,103.465"/>
	</g>
	<g>
		<defs>
			<path id="SVGID_1_" d="M1.189,103.465c0,56.484,45.792,102.276,102.275,102.276c56.486,0,102.276-45.792,102.276-102.276
				c0-56.485-45.79-102.276-102.276-102.276C46.981,1.189,1.189,46.98,1.189,103.465"/>
		</defs>
		<clipPath id="SVGID_2_">
			<use xlink:href="#SVGID_1_"  overflow="visible"/>
		</clipPath>
		<path clip-path="url(#SVGID_2_)" fill="#818689" d="M149.699,33.813c-9.829,0.289-16.188,6.359-16.188,6.359
			s-3.446-3.238-12.433-6.939c-5.994-2.468-12.092-3.402-17.725-3.395v-0.005c-0.104-0.001-0.209,0.004-0.313,0.003
			c-0.103,0.001-0.209-0.004-0.312-0.003v0.005c-5.633-0.008-11.73,0.927-17.725,3.395c-8.986,3.701-12.432,6.939-12.432,6.939
			s-6.359-6.07-16.189-6.359c-9.829-0.291-12.721,0.866-12.432,6.648c0.289,5.781,1.156,18.503,4.914,25.441
			c3.759,6.938,4.626,8.383,7.807,6.938c3.18-1.446,10.407-9.83,13.01-13.588c2.602-3.759,3.18-6.36,3.18-6.36
			s5.493,12.432,5.782,21.393c0.289,8.963,0,16.769-1.156,22.262c-1.157,5.493-13.424,31.277-17.347,41.92
			c-5.631,15.277-8.945,44.155-7.517,65.337c1.673,24.799,5.647,47.076,10.408,61.58c5.396,16.439,7.517,21.395,9.251,23.418
			s19.659,3.469,25.73,2.313c1.81-0.344,3.508-0.666,5.026-1.045c1.521,0.379,3.219,0.701,5.027,1.045
			c6.072,1.156,23.996-0.289,25.731-2.313c1.733-2.023,3.854-6.979,9.251-23.418c4.761-14.504,8.735-36.781,10.407-61.58
			c1.429-21.182-1.886-50.06-7.517-65.337c-3.923-10.643-16.19-36.427-17.346-41.92c-1.157-5.493-1.446-13.299-1.157-22.262
			c0.289-8.961,5.782-21.393,5.782-21.393s0.579,2.602,3.181,6.36c2.601,3.758,9.829,12.142,13.009,13.588
			c3.181,1.444,4.048,0,7.807-6.938c3.758-6.938,4.626-19.66,4.915-25.441C162.421,34.679,159.53,33.522,149.699,33.813
			 M106.912,239.075c-0.478,7.547-2.008,13.756-3.871,18.848c-1.861-5.092-3.393-11.301-3.87-18.848
			c-1.172-18.502-0.996-32.223,3.87-36.012C107.908,206.853,108.083,220.573,106.912,239.075"/>
		<path clip-path="url(#SVGID_2_)" fill="#E1D9CB" d="M86.502,101.533c-4.264,0.012-8.442-0.217-12.688-0.217
			c-6.217,0-12.623-0.623-16.25,5.254c-4.836,7.83-5.226,19.969-4.331,28.799c0.531,5.246,0.128,10.765,0.878,15.959
			c0.588,4.072,3.718,7.652,8.071,7.893c5.007,0.275,7.446-6.515,11.86-8.049c3.438-1.195,5.598,2.152,7.49,4.488
			c2.351,2.902,6.616,6.063,10.463,3.559c3.757-2.445,5.166-8.014,10.551-7.605c5.164,0.393,6.855,6.235,11.88,7.172
			c7.314,1.365,7.672-6.629,13.273-8.475c5.196-1.712,7.67,5.646,11.564,7.506c5.158,2.465,10.622,0.762,12.746-4.795
			c1.568-4.105,1.18-9.34,1.175-13.639c-0.006-4.709-0.318-9.293-0.704-13.975c-0.499-6.051,0.531-12.309-2.982-17.586
			c-4.681-7.031-14.589-7.438-22.211-6.685C120.179,101.839,91.217,101.522,86.502,101.533"/>
		<path clip-path="url(#SVGID_2_)" fill="#E1D9CB" d="M105.008,162.603c-6.188-0.199-10.333,3.387-13.489,5.768
			c-3.825,2.889-7.082,7.301-9.74,11.252c-1.826,2.713-10.842,17.514-1.146,15.588c4.806-0.953,10.185-7.701,12.953-11.453
			c1.68,3.432,2.752,7.035,6.823,8.521c4.958,1.809,9.332-3.43,10.083-7.93c2.206,3.809,18.633,16.877,19.349,6.277
			c0.64-9.484-9.052-18.443-15.396-24.223C111.854,164.044,108.26,162.734,105.008,162.603"/>
		<path clip-path="url(#SVGID_2_)" fill="#E1D9CB" d="M83.312,51.772c-4.094,1.733-4.987,7.394-4.987,11.28
			c0,1.946,0.624,10.569,3.992,9.11c1.709-0.741,1.982-4.52,1.906-6.063c1.421,1.348,2.956,4.633,5.484,4.321
			c2.36-0.292,2.816-3.638,2.973-5.573c1.718,3.012,6.675,4.738,8.422,0.742c1.262-2.885,0.524-7.554-1.095-10.132
			C96.62,50.069,88.526,49.372,83.312,51.772"/>
		<path clip-path="url(#SVGID_2_)" fill="#E1D9CB" d="M122.772,51.772c4.095,1.733,4.987,7.394,4.987,11.28
			c0,1.946-0.624,10.569-3.992,9.11c-1.709-0.741-1.981-4.52-1.906-6.063c-1.422,1.348-2.955,4.633-5.484,4.321
			c-2.36-0.292-2.816-3.638-2.972-5.573c-1.719,3.012-6.676,4.738-8.423,0.742c-1.262-2.885-0.524-7.554,1.096-10.132
			C109.463,50.069,117.558,49.372,122.772,51.772"/>
		<path clip-path="url(#SVGID_2_)" fill="#231F20" d="M107.246,97.671c-4.67,0-13.832-0.882-17.721,2.2
			c-5.078,4.027,1.078,10.686,3.347,14.064c2.217,3.303,7.374,9.406,12.104,7.76c5.093-1.772,10.854-9.904,12.805-14.693
			C121.257,98.462,111.471,97.436,107.246,97.671"/>
		<path clip-path="url(#SVGID_2_)" fill="#FFFFFF" d="M110.777,102.618c0,1.317-3.592,2.385-8.022,2.385s-8.022-1.067-8.022-2.385
			s3.592-2.386,8.022-2.386S110.777,101.301,110.777,102.618"/>
		<path clip-path="url(#SVGID_2_)" fill="#231F20" d="M98.991,83.321c0-2.952-2.393-5.346-5.345-5.346
			c-2.951,0-5.344,2.394-5.344,5.346s2.393,5.346,5.344,5.346C96.599,88.666,98.991,86.273,98.991,83.321"/>
		<path clip-path="url(#SVGID_2_)" fill="#FFFFFF" d="M95.327,83.321c0-0.928-0.752-1.682-1.681-1.682
			c-0.928,0-1.68,0.754-1.68,1.682s0.752,1.682,1.68,1.682C94.575,85.002,95.327,84.248,95.327,83.321"/>
		<path clip-path="url(#SVGID_2_)" fill="#231F20" d="M117.781,83.102c0-2.952-2.394-5.346-5.345-5.346s-5.345,2.394-5.345,5.346
			c0,2.951,2.394,5.345,5.345,5.345S117.781,86.053,117.781,83.102"/>
		<path clip-path="url(#SVGID_2_)" fill="#FFFFFF" d="M114.117,83.102c0-0.928-0.752-1.682-1.681-1.682s-1.681,0.754-1.681,1.682
			s0.752,1.681,1.681,1.681S114.117,84.03,114.117,83.102"/>
		<g opacity="0.2" clip-path="url(#SVGID_2_)">
			<g>
				<defs>
					<rect id="SVGID_3_" x="43.933" y="29.832" width="59.533" height="261.692"/>
				</defs>
				<clipPath id="SVGID_4_">
					<use xlink:href="#SVGID_3_"  overflow="visible"/>
				</clipPath>
				<path clip-path="url(#SVGID_4_)" fill="#FFFFFF" d="M103.465,256.702c-0.14,0.41-0.278,0.824-0.424,1.221
					c-1.861-5.09-3.393-11.301-3.87-18.848c-1.171-18.502-0.996-32.223,3.87-36.012c0.151,0.117,0.283,0.271,0.424,0.408V29.84
					c-0.036,0-0.074-0.002-0.111-0.002v-0.004c-0.104-0.002-0.208,0.002-0.313,0.002c-0.103,0-0.209-0.004-0.311-0.002v0.004
					c-5.634-0.008-11.731,0.928-17.726,3.396c-8.986,3.7-12.432,6.938-12.432,6.938s-6.36-6.072-16.19-6.36
					c-9.828-0.289-12.72,0.866-12.431,6.649c0.289,5.781,1.156,18.502,4.915,25.441c3.758,6.938,4.625,8.385,7.805,6.938
					c3.182-1.444,10.408-9.83,13.011-13.588c2.602-3.758,3.18-6.359,3.18-6.359s5.493,12.431,5.782,21.395
					c0.289,8.961,0,16.768-1.156,22.26c-0.21,0.998-0.79,2.67-1.616,4.793c-0.685-0.01-1.369-0.022-2.057-0.022
					c-6.217,0-12.623-0.623-16.251,5.252c-4.836,7.832-5.226,19.97-4.331,28.802c0.531,5.243,0.128,10.762,0.878,15.956
					c0.217,1.503,0.782,2.935,1.624,4.161c-2.794,15.034-4.106,33.544-3.11,48.317c1.672,24.797,5.647,47.074,10.408,61.578
					c5.396,16.439,7.516,21.395,9.251,23.418s19.659,3.469,25.73,2.313c1.81-0.346,3.508-0.668,5.026-1.045
					c0.134,0.033,0.287,0.063,0.424,0.096V256.702z"/>
			</g>
		</g>
	</g>
</g>
</svg>
