<?xml version="1.0" encoding="utf-8"?>
<!-- Generator: Adobe Illustrator 16.0.0, SVG Export Plug-In . SVG Version: 6.00 Build 0)  -->
<!DOCTYPE svg PUBLIC "-//W3C//DTD SVG 1.1//EN" "http://www.w3.org/Graphics/SVG/1.1/DTD/svg11.dtd">
<svg version="1.1" id="Layer_1" xmlns="http://www.w3.org/2000/svg" xmlns:xlink="http://www.w3.org/1999/xlink" x="0px" y="0px"
	 width="206.93px" height="206.93px" viewBox="0 0 206.93 206.93" enable-background="new 0 0 206.93 206.93" xml:space="preserve">
<g>
	<g>
		<path fill="#BBD64A" d="M205.74,103.465c0-56.486-45.791-102.276-102.275-102.276c-56.486,0-102.276,45.79-102.276,102.276
			c0,56.485,45.79,102.275,102.276,102.275C159.949,205.74,205.74,159.95,205.74,103.465"/>
	</g>
	<g>
		<defs>
			<path id="SVGID_1_" d="M1.189,103.465c0,56.485,45.79,102.276,102.276,102.276c56.485,0,102.276-45.791,102.276-102.276
				c0-56.486-45.791-102.276-102.276-102.276C46.979,1.189,1.189,46.979,1.189,103.465"/>
		</defs>
		<clipPath id="SVGID_2_">
			<use xlink:href="#SVGID_1_"  overflow="visible"/>
		</clipPath>
		<path clip-path="url(#SVGID_2_)" fill="#BC4029" d="M71.136,130.396c-0.93,2.39,0.873,6.848,0.092,10.021
			c-0.934,3.795-2.731,7.898-4.362,11.413c-3.366,7.251-8.238,13.708-11.421,21.052c-2.925,6.747-4.527,13.974-4.519,21.292
			c0.004,3.779-0.591,8.176,0.239,11.872c1.182,5.261,7.3,7.967,11.948,9.883c14.943,6.162,31.054,13.107,46.88,5.966
			c-0.841-2.328,0.506-5.167,0.675-7.652c0.423-6.215,0.312-12.717,0.276-18.928c-0.072-12.521,0.558-25.811,0-38.277
			c-0.324-7.226-2.036-14.381-8.715-18.976c-4.695-3.229-9.547-3.868-14.723-5.725C83.582,130.929,79.442,129.11,71.136,130.396"/>
		<path clip-path="url(#SVGID_2_)" fill="#BC4029" d="M135.793,130.382c0.93,2.389-0.873,6.847-0.092,10.021
			c0.934,3.795,2.731,7.898,4.363,11.413c3.365,7.251,8.237,13.708,11.421,21.053c2.924,6.746,4.526,13.973,4.518,21.292
			c-0.004,3.778,0.591,8.176-0.239,11.871c-1.182,5.262-7.3,7.968-11.947,9.884c-14.944,6.162-31.055,13.106-46.881,5.966
			c0.842-2.329-0.506-5.167-0.675-7.653c-0.423-6.215-0.312-12.717-0.275-18.928c0.071-12.521-0.559-25.811,0-38.277
			c0.323-7.225,2.035-14.381,8.714-18.975c4.696-3.23,9.547-3.869,14.723-5.726C123.347,130.915,127.489,129.095,135.793,130.382"/>
		<path clip-path="url(#SVGID_2_)" fill="#E9D8C9" d="M132.103,206.309c-0.606-11.119-1.043-22.769-5.952-33.03
			c-3.816-7.979-11.181-17.662-21.116-17.771c-0.463-0.166-0.953-0.228-1.467-0.181c-0.629-0.094-1.221-0.021-1.774,0.198
			c-9.885,0.173-17.211,9.816-21.014,17.767c-4.91,10.263-5.347,21.911-5.953,33.031c-0.474,8.657-2.857,26.271,6.275,31.415
			c4.841,2.725,12.365,3.373,17.745,2.605c1.764-0.251,3.291-0.675,4.633-1.252c1.336,0.57,2.854,0.989,4.604,1.238
			c5.379,0.766,12.905,0.119,17.744-2.606C134.96,232.581,132.576,214.965,132.103,206.309"/>
		<path clip-path="url(#SVGID_2_)" fill="#702E1E" d="M50.327,26.997c0,0,9.681,0.164,21,8.581
			c11.318,8.416,16.762,16.898,18.068,19.655c1.306,2.757,2.03,5.515,2.03,5.515s-13.495,2.177-19.59,6.095
			S58.63,80.049,58.63,80.049s-4.53-5.476-8.303-17.374C46.554,50.775,46.99,31.931,50.327,26.997"/>
		<path clip-path="url(#SVGID_2_)" fill="#E9D8C9" d="M69.295,40.997c-9.578-9.578-16.081-11.193-17.387-10.613
			c-1.307,0.58-0.468,13.938,1.129,20.323c1.596,6.385,4.142,13.089,6.754,18.313c1.353,2.704,2.49,4.512,3.343,5.69
			c2.514-2.767,5.729-5.955,8.702-7.867c2.937-1.888,7.59-3.37,11.626-4.401C80.749,57.311,76.448,48.149,69.295,40.997"/>
		<path clip-path="url(#SVGID_2_)" fill="#E9D8C9" d="M54.542,83.66c0,0,3.764,4.652-2.069,13.225
			c-11.065,16.258-33.847,11.046-33.847,11.046l17.196,6.748c0,0-1.522,2.177-7.183,5.333c-4.873,2.718-6.53,3.156-6.53,3.156
			s7.618,2.177,12.19,2.177c4.57,0,7.836-0.217,7.836-0.217s-4.137,4.135-5.442,6.529s-1.741,3.918-1.741,3.918
			s22.855-5.877,42.229,3.266c19.373,9.142,22.638,20.025,23.291,22.638c0.652,2.612,1.74,0.217,1.74,0.217
			s0.871-35.915-5.006-52.241C91.329,93.13,83.058,73.975,76.093,73.322C69.126,72.669,54.542,83.66,54.542,83.66"/>
		<path clip-path="url(#SVGID_2_)" fill="#231F20" d="M80.009,110.659c0-3.266-2.646-5.912-5.912-5.912
			c-3.265,0-5.912,2.646-5.912,5.912c0,3.265,2.647,5.911,5.912,5.911C77.363,116.571,80.009,113.924,80.009,110.659"/>
		<path clip-path="url(#SVGID_2_)" fill="#FFFFFF" d="M75.956,110.659c0-1.027-0.832-1.859-1.858-1.859
			c-1.027,0-1.859,0.832-1.859,1.859c0,1.026,0.832,1.858,1.859,1.858C75.124,112.518,75.956,111.686,75.956,110.659"/>
		<path clip-path="url(#SVGID_2_)" fill="#231F20" d="M109.759,163.328c0,4.027-2.826,7.292-6.313,7.292s-6.313-3.265-6.313-7.292
			c0-4.026,2.826-7.292,6.313-7.292S109.759,159.302,109.759,163.328"/>
		<path clip-path="url(#SVGID_2_)" fill="#702E1E" d="M156.602,26.983c0,0-9.681,0.164-21,8.581
			c-11.318,8.416-16.762,16.898-18.067,19.656c-1.307,2.757-2.031,5.514-2.031,5.514s13.495,2.177,19.59,6.095
			c6.096,3.918,13.206,13.206,13.206,13.206s4.53-5.475,8.303-17.374C160.375,50.761,159.941,31.916,156.602,26.983"/>
		<path clip-path="url(#SVGID_2_)" fill="#E9D8C9" d="M137.634,40.983c9.578-9.578,16.081-11.193,17.388-10.613
			c1.306,0.58,0.467,13.938-1.13,20.323c-1.596,6.385-4.142,13.089-6.754,18.313c-1.353,2.703-2.489,4.511-3.343,5.689
			c-2.514-2.766-5.728-5.955-8.702-7.867c-2.937-1.888-7.59-3.37-11.626-4.4C126.18,57.297,130.483,48.135,137.634,40.983"/>
		<path clip-path="url(#SVGID_2_)" fill="#E9D8C9" d="M152.387,83.647c0,0-3.763,4.651,2.069,13.224
			c11.065,16.258,33.847,11.046,33.847,11.046l-17.196,6.748c0,0,1.524,2.177,7.184,5.333c4.872,2.718,6.529,3.156,6.529,3.156
			s-7.618,2.177-12.188,2.177c-4.572,0-7.837-0.217-7.837-0.217s4.136,4.135,5.441,6.53c1.307,2.394,1.742,3.918,1.742,3.918
			s-22.855-5.877-42.229,3.265c-19.373,9.143-22.639,20.026-23.291,22.638c-0.653,2.612-1.741,0.218-1.741,0.218
			s-0.871-35.915,5.006-52.241c5.877-16.325,14.149-35.48,21.114-36.133C137.803,72.655,152.387,83.647,152.387,83.647"/>
		<path clip-path="url(#SVGID_2_)" fill="#231F20" d="M126.92,110.645c0-3.265,2.647-5.912,5.912-5.912s5.912,2.647,5.912,5.912
			s-2.647,5.912-5.912,5.912S126.92,113.909,126.92,110.645"/>
		<path clip-path="url(#SVGID_2_)" fill="#FFFFFF" d="M130.973,110.645c0-1.027,0.832-1.859,1.859-1.859
			c1.026,0,1.858,0.832,1.858,1.859s-0.832,1.858-1.858,1.858C131.805,112.503,130.973,111.672,130.973,110.645"/>
		<path clip-path="url(#SVGID_2_)" fill="#BC4029" d="M141.135,66.16c-14.259-12.79-61.143-12.721-75.34,0.014
			c-15.131,13.573-19.87,37.485-19.87,37.485s13.348-11.038,24.611-9.484c13.098,1.807,19.559,6.305,23.259,23.936
			c3.7,17.632,6.458,45.545,6.458,45.545h3.049h0.993v-0.015h2.38c0,0,2.759-27.913,6.46-45.545
			c3.699-17.632,10.16-22.129,23.258-23.936c11.264-1.553,24.612,9.484,24.612,9.484S156.266,79.734,141.135,66.16"/>
		<path clip-path="url(#SVGID_2_)" fill="#231F20" d="M97.171,163.315c0,4.026,2.825,7.292,6.312,7.292
			c3.487,0,6.313-3.266,6.313-7.292c0-4.027-2.826-7.292-6.313-7.292C99.996,156.023,97.171,159.287,97.171,163.315"/>
		<g opacity="0.2" clip-path="url(#SVGID_2_)">
			<g>
				<defs>
					<rect id="SVGID_3_" x="18.627" y="26.997" width="84.004" height="213.646"/>
				</defs>
				<clipPath id="SVGID_4_">
					<use xlink:href="#SVGID_3_"  overflow="visible"/>
				</clipPath>
				<path clip-path="url(#SVGID_4_)" fill="#FFFFFF" d="M102.631,56.617c-4.168,0.033-8.325,0.296-12.308,0.805
					c-0.266-0.694-0.573-1.439-0.929-2.188c-1.306-2.757-6.749-11.239-18.067-19.655c-11.318-8.417-21-8.581-21-8.581
					c-3.338,4.934-3.773,23.777,0,35.678c2.217,6.99,4.688,11.747,6.354,14.496c-7.43,11.712-10.336,24.502-10.712,26.269
					c-11.662,8.067-27.343,4.491-27.343,4.491l17.195,6.748c0,0-1.523,2.177-7.183,5.333c-4.873,2.718-6.53,3.156-6.53,3.156
					s7.618,2.177,12.189,2.177s7.836-0.218,7.836-0.218s-4.135,4.136-5.441,6.531c-1.307,2.394-1.741,3.918-1.741,3.918
					s18.521-4.758,36.35,0.961c0.148,1.355,0.215,2.706-0.074,3.88c-0.934,3.795-2.73,7.897-4.363,11.413
					c-3.365,7.252-8.237,13.708-11.421,21.052c-2.924,6.747-4.526,13.973-4.518,21.292c0.004,3.78-0.591,8.176,0.239,11.872
					c1.182,5.261,7.301,7.967,11.947,9.883c3.64,1.5,7.348,3.046,11.104,4.424c0.165,7.203,1.581,14.398,6.886,17.385
					c4.84,2.726,12.366,3.373,17.745,2.607c1.404-0.2,2.653-0.515,3.784-0.924V56.617z"/>
			</g>
		</g>
	</g>
</g>
</svg>
