<?xml version="1.0" encoding="utf-8"?>
<!-- Generator: Adobe Illustrator 16.0.0, SVG Export Plug-In . SVG Version: 6.00 Build 0)  -->
<!DOCTYPE svg PUBLIC "-//W3C//DTD SVG 1.1//EN" "http://www.w3.org/Graphics/SVG/1.1/DTD/svg11.dtd">
<svg version="1.1" id="Layer_1" xmlns="http://www.w3.org/2000/svg" xmlns:xlink="http://www.w3.org/1999/xlink" x="0px" y="0px"
	 width="206.93px" height="206.93px" viewBox="0 0 206.93 206.93" enable-background="new 0 0 206.93 206.93" xml:space="preserve">
<g>
	<g>
		<path fill="#FFCB3C" d="M205.153,103.088c0-56.486-45.791-102.276-102.275-102.276c-56.486,0-102.276,45.79-102.276,102.276
			s45.79,102.276,102.276,102.276C159.362,205.364,205.153,159.574,205.153,103.088"/>
	</g>
	<g>
		<defs>
			<path id="SVGID_1_" d="M0.602,103.088c0,56.485,45.79,102.276,102.276,102.276c56.485,0,102.276-45.791,102.276-102.276
				c0-56.486-45.791-102.276-102.276-102.276C46.392,0.812,0.602,46.602,0.602,103.088"/>
		</defs>
		<clipPath id="SVGID_2_">
			<use xlink:href="#SVGID_1_"  overflow="visible"/>
		</clipPath>
		<path clip-path="url(#SVGID_2_)" fill="#82868A" d="M158.781,166.837c-0.413-8.298-1.286-17.184-3.24-25.294
			c-1.727-7.167-3.87-25.107-9.688-29.076c-3.419-8.652-21.981-7.695-30.064-5.142c-9.278,2.93-12.438,7.246-13.357,13.215
			c-0.92-5.969-4.079-10.285-13.356-13.215c-8.083-2.554-26.646-3.51-30.065,5.142c-5.818,3.969-7.962,21.909-9.688,29.076
			c-1.953,8.11-2.826,16.996-3.24,25.294c-0.329,6.606-0.799,14.533,0.443,20.914c2.038,10.457,15.385,14.738,24.734,16.816
			c9.855,2.189,20.776,1.837,30.896,1.39c0.107-0.717,0.186-1.437,0.277-2.155c0.093,0.719,0.171,1.438,0.277,2.155
			c10.12,0.447,21.04,0.8,30.896-1.39c9.351-2.078,22.697-6.359,24.734-16.816C159.581,181.37,159.11,173.443,158.781,166.837
			 M102.431,134.865c0.228,5.528,0.172,11.092,0,16.672C102.259,145.957,102.205,140.394,102.431,134.865"/>
		<path clip-path="url(#SVGID_2_)" fill="#C1BDBB" d="M147.188,141.891c-1.604-4.339-3.673-7.912-3.117-12.719
			c0.514-4.431,2.221-7.832,2.229-12.696c-1.275-5.124-13.797-8.371-18.527-8.952c-7.328-0.898-18.291-1.896-25.341,1.95
			c-7.049-3.847-18.012-2.849-25.34-1.95c-4.731,0.581-17.253,3.828-18.527,8.952c0.007,4.864,1.715,8.266,2.228,12.696
			c0.557,4.807-1.513,8.38-3.116,12.719c-3.644,9.853,1.186,21.186,7.138,29.388c7.484,10.313,17.721,19.25,29.845,23.936
			c2.637,1.019,5.353,1.757,7.773,1.506c2.421,0.251,5.137-0.487,7.772-1.506c12.124-4.686,22.362-13.622,29.846-23.936
			C146.002,163.076,150.83,151.743,147.188,141.891"/>
		<path clip-path="url(#SVGID_2_)" fill="#82868A" d="M82.174,68.017c-3.166-14.519-19.096-27.114-33.266-27.585
			c-9.989-0.333-34.758,10.3-20.325,22.534c-11.396,2.151-10.476,12.458,0.75,13.303c-3.755,6.707-3.228,13.492,6.472,13.777
			c-0.509,13.623,23.146,17.775,32.641,12.248C81.218,94.858,77.682,78.496,82.174,68.017"/>
		<path clip-path="url(#SVGID_2_)" fill="#C1BDBB" d="M67.569,111.828c14.016-14.661,13.443-34.788,0.611-49.271
			c-4.919-5.552-9.954-10.711-18.163-10.696c-7.724,0.015-12.635,5.286-11.654,13.164c0.688,5.518,4.903,5.851,4.873,7.533
			c-0.032,1.747-2.525,2.863-2.776,6.217c-0.432,5.746,2.147,8.028,7.557,9.732c-5.228,9.714,10.596,10.336,16.166,10.482
			C66.054,103.523,63.557,108.91,67.569,111.828"/>
		<path clip-path="url(#SVGID_2_)" fill="#82868A" d="M122.688,68.017c3.166-14.519,19.095-27.114,33.265-27.585
			c9.99-0.333,34.758,10.3,20.326,22.534c11.395,2.151,10.475,12.458-0.75,13.303c3.754,6.707,3.227,13.492-6.473,13.777
			c0.51,13.623-23.146,17.775-32.641,12.248C123.644,94.858,127.18,78.496,122.688,68.017"/>
		<path clip-path="url(#SVGID_2_)" fill="#C1BDBB" d="M137.292,111.828c-14.015-14.661-13.442-34.788-0.61-49.271
			c4.919-5.552,9.953-10.711,18.162-10.696c7.725,0.015,12.636,5.286,11.654,13.164c-0.687,5.518-4.903,5.851-4.873,7.533
			c0.032,1.747,2.526,2.863,2.777,6.217c0.431,5.746-2.148,8.028-7.558,9.732c5.228,9.714-10.596,10.336-16.166,10.482
			C138.81,103.523,141.305,108.91,137.292,111.828"/>
		<path clip-path="url(#SVGID_2_)" fill="#82868A" d="M151.848,86.36c-4.761-10.965-9.466-21.866-18.704-29.938
			c-8.366-7.31-19.696-7.539-30.369-7.545c0.001-0.001,0.001-0.001,0.002-0.001c-0.114,0-0.23,0-0.346,0s-0.23,0-0.346,0
			c0.001,0,0.001,0,0.002,0.001c-10.672,0.006-22.003,0.235-30.369,7.545c-9.238,8.072-13.943,18.973-18.704,29.938
			c-3.293,7.585-5.866,19.183-2.867,27.343c3.771,10.263,14.796,16.54,24.557,19.783c8.355,2.777,18.965,2.973,27.728,2.552
			c8.763,0.421,19.372,0.226,27.729-2.552c9.759-3.243,20.784-9.521,24.555-19.783C157.714,105.543,155.141,93.945,151.848,86.36
			 M102.431,49.104c0.729,0.493,0.454,0.444,0,0.455C101.977,49.548,101.703,49.597,102.431,49.104"/>
		<path clip-path="url(#SVGID_2_)" fill="#231F20" d="M101.962,111.842c1.486,5.514-1.951,10.125-7.097,11.931
			c-4.438,1.56-8.553,0.847-12.685-1.121c-0.265-0.125-0.545,0.192-0.323,0.418c7.193,7.319,25.273-0.461,20.544-11.413
			C102.291,111.4,101.893,111.585,101.962,111.842"/>
		<path clip-path="url(#SVGID_2_)" fill="#231F20" d="M87.114,87.52c0-3.221-2.611-5.831-5.831-5.831
			c-3.221,0-5.832,2.61-5.832,5.831c0,3.221,2.611,5.831,5.832,5.831C84.503,93.351,87.114,90.741,87.114,87.52"/>
		<path clip-path="url(#SVGID_2_)" fill="#FFFFFF" d="M83.116,87.52c0-1.013-0.821-1.834-1.834-1.834s-1.834,0.821-1.834,1.834
			c0,1.013,0.821,1.834,1.834,1.834S83.116,88.533,83.116,87.52"/>
		<path clip-path="url(#SVGID_2_)" fill="#231F20" d="M113.556,86.852c-1.631-6.641-4.571-7.673-10.438-7.783
			c-0.002-0.004-0.004-0.009-0.006-0.013c-0.235,0-0.454,0.003-0.681,0.005c-0.226-0.002-0.445-0.005-0.68-0.005
			c-0.002,0.004-0.004,0.009-0.006,0.013c-5.868,0.11-8.808,1.142-10.439,7.783c-1.211,4.928-2.235,11.218-1.95,16.388
			c0.277,5.049,2.712,10.844,11.007,12.317c0.545,0.221,1.227,0.313,2.068,0.26c0.843,0.053,1.524-0.039,2.069-0.26
			c8.295-1.473,10.729-7.268,11.007-12.317C115.791,98.07,114.766,91.78,113.556,86.852"/>
		<path clip-path="url(#SVGID_2_)" fill="#231F20" d="M103.638,111.656c-4.729,10.951,13.352,18.731,20.544,11.414
			c0.222-0.226-0.057-0.545-0.322-0.418c-4.133,1.966-8.246,2.679-12.686,1.121c-5.145-1.807-8.583-6.418-7.096-11.932
			C104.146,111.588,103.749,111.398,103.638,111.656"/>
		<path clip-path="url(#SVGID_2_)" fill="#231F20" d="M117.748,87.52c0-3.221,2.61-5.831,5.831-5.831s5.832,2.61,5.832,5.831
			c0,3.221-2.611,5.831-5.832,5.831S117.748,90.741,117.748,87.52"/>
		<path clip-path="url(#SVGID_2_)" fill="#FFFFFF" d="M121.745,87.52c0-1.013,0.821-1.834,1.834-1.834
			c1.014,0,1.834,0.821,1.834,1.834c0,1.013-0.82,1.834-1.834,1.834C122.566,89.354,121.745,88.533,121.745,87.52"/>
		<g opacity="0.2" clip-path="url(#SVGID_2_)">
			<g>
				<defs>
					<rect id="SVGID_3_" x="20.464" y="40.423" width="82.64" height="165.869"/>
				</defs>
				<clipPath id="SVGID_4_">
					<use xlink:href="#SVGID_3_"  overflow="visible"/>
				</clipPath>
				<path clip-path="url(#SVGID_4_)" fill="#FFFFFF" d="M103.103,48.877c-0.108,0-0.219-0.001-0.328-0.001
					c0.001,0,0.001-0.001,0.002-0.001c-0.114,0-0.23,0-0.346,0s-0.23,0-0.346,0c0.001,0,0.001,0.001,0.002,0.001
					c-9.372,0.006-19.252,0.186-27.187,5.181c-6.709-7.825-16.726-13.318-25.991-13.626c-9.99-0.333-34.759,10.3-20.326,22.534
					c-11.396,2.151-10.476,12.458,0.75,13.303c-3.754,6.707-3.228,13.492,6.472,13.777c-0.261,6.969,5.806,11.453,13.063,13.437
					c-0.185,3.628,0.156,7.166,1.279,10.222c0.933,2.537,2.312,4.829,4.002,6.895c-2.393,6.979-3.701,16.261-4.829,20.943
					c-1.952,8.11-2.825,16.997-3.239,25.295c-0.329,6.605-0.799,14.533,0.443,20.914c2.038,10.457,15.385,14.738,24.734,16.816
					c9.855,2.189,20.776,1.837,30.896,1.39c0.107-0.717,0.186-1.437,0.277-2.155c0.093,0.719,0.17,1.438,0.277,2.155
					c0.131,0.005,0.265,0.01,0.395,0.017V48.877z M102.431,49.558c-0.454-0.01-0.728,0.039,0-0.455
					C103.159,49.597,102.885,49.548,102.431,49.558"/>
			</g>
		</g>
	</g>
</g>
</svg>
