<?xml version="1.0" encoding="utf-8"?>
<!-- Generator: Adobe Illustrator 16.0.0, SVG Export Plug-In . SVG Version: 6.00 Build 0)  -->
<!DOCTYPE svg PUBLIC "-//W3C//DTD SVG 1.1//EN" "http://www.w3.org/Graphics/SVG/1.1/DTD/svg11.dtd">
<svg version="1.1" id="Layer_1" xmlns="http://www.w3.org/2000/svg" xmlns:xlink="http://www.w3.org/1999/xlink" x="0px" y="0px"
	 width="206.93px" height="206.93px" viewBox="0 0 206.93 206.93" enable-background="new 0 0 206.93 206.93" xml:space="preserve">
<g>
	<g>
		<path fill="#FF6470" d="M205.74,103.465c0-56.486-45.791-102.276-102.275-102.276c-56.486,0-102.276,45.79-102.276,102.276
			s45.79,102.276,102.276,102.276C159.949,205.741,205.74,159.951,205.74,103.465"/>
	</g>
	<g>
		<defs>
			<path id="SVGID_1_" d="M1.189,103.465c0,56.485,45.79,102.276,102.276,102.276c56.485,0,102.276-45.791,102.276-102.276
				S159.95,1.189,103.465,1.189C46.979,1.189,1.189,46.98,1.189,103.465"/>
		</defs>
		<clipPath id="SVGID_2_">
			<use xlink:href="#SVGID_1_"  overflow="visible"/>
		</clipPath>
		<path clip-path="url(#SVGID_2_)" fill="#666666" d="M63.028,99.972c0,0-9.364-9.364-19.063-5.352
			c-9.697,4.014-10.701,14.382-3.01,17.057c7.692,2.676,16.389,3.679,19.398,1.672C63.362,111.343,63.028,99.972,63.028,99.972"/>
		<path clip-path="url(#SVGID_2_)" fill="#666666" d="M143.902,99.972c0,0,9.364-9.364,19.063-5.352
			c9.698,4.014,10.702,14.382,3.01,17.057c-7.692,2.676-16.388,3.679-19.398,1.672C143.568,111.343,143.902,99.972,143.902,99.972"
			/>
		<path clip-path="url(#SVGID_2_)" fill="#666666" d="M216.92,362.837c-4.905-5.797-19.62-4.013-19.62-4.013
			s9.81-14.269,14.715-28.093c4.905-13.823,8.026-45.037-2.229-53.509c-10.257-8.474-30.322,10.256-30.322,10.256
			c-2.021,3.032-12.839,20.633-23.689,39.221c3.825-14.416,7.116-27.278,7.638-30.749c1.337-8.918-3.568-106.127-11.148-119.951
			c-6.762-12.329-40.814-15.078-48.1-15.529v-0.077c0,0-0.261,0.012-0.698,0.037c-0.438-0.025-0.699-0.037-0.699-0.037l0.001,0.077
			c-7.286,0.451-41.339,3.2-48.1,15.529c-7.581,13.824-12.486,111.033-11.148,119.951c0.521,3.471,3.812,16.333,7.637,30.749
			c-10.851-18.588-21.668-36.188-23.689-39.221c0,0-20.066-18.729-30.322-10.256c-10.256,8.472-7.134,39.686-2.229,53.509
			C-0.18,344.556,9.63,358.824,9.63,358.824s-14.715-1.784-19.62,4.013c-4.906,5.798-0.892,13.378,2.229,13.823
			c2.476,0.354,50.635,0.427,72.483-0.892h38.49h0.505h38.491c21.848,1.318,70.008,1.246,72.481,0.892
			C217.812,376.215,221.825,368.635,216.92,362.837"/>
		<path clip-path="url(#SVGID_2_)" fill="#333333" d="M198.192,230.847c-4.905-39.686-32.106-70.899-43.254-107.91
			c-11.147-37.012-7.946-49.091-20.957-75.359c-10.474-21.146-28.945-20.921-33.012-20.597c-5.32-0.048-18.733,1.848-28.02,20.597
			c-13.012,26.269-9.81,38.348-20.958,75.359c-11.147,37.011-38.349,68.225-43.254,107.91
			c-4.905,39.687,6.243,90.074,11.148,108.804c4.904,18.728,11.594,32.105,18.728,33.442c7.135,1.339,10.702-8.472,10.702-8.472
			s1.338,9.811,8.027,9.811c6.688,0,8.918-9.364,8.918-9.364s-0.543,9.141,6.242,9.81s8.473-8.472,8.473-8.472
			s1.338,8.472,9.81,8.026c8.474-0.446,9.811-49.497,10.702-64.657c0.893-15.161-4.905-53.956-19.174-80.266
			c-7.077-13.047-14.715-34.78-6.689-46.82c7.319-10.978,24.627-14.019,27.661-14.032c2.551-0.012,20.56,2.842,28.02,14.032
			c8.025,12.04,0.388,33.773-6.689,46.82c-14.269,26.31-20.065,65.104-19.174,80.266c0.892,15.16,2.229,64.211,10.702,64.657
			c8.472,0.445,9.81-8.026,9.81-8.026s1.688,9.141,8.473,8.472s6.242-9.81,6.242-9.81s2.23,9.364,8.919,9.364
			s8.026-9.811,8.026-9.811s3.567,9.811,10.702,8.472c7.134-1.337,13.823-14.715,18.728-33.442
			C191.948,320.921,203.097,270.533,198.192,230.847"/>
		<path clip-path="url(#SVGID_2_)" fill="#8C8C8C" d="M141.031,111.677c-2.988-17.2-8.871-35.784-8.871-35.784
			s-1.564-0.938-7.341-1.338c-4.585-0.317-17.2-1.154-23.118-1.058c-4.393-0.097-15.006,0.74-19.591,1.058
			c-5.777,0.399-7.342,1.338-7.342,1.338s-5.883,18.584-8.871,35.784c-3.428,19.732-4.588,30.099,7.647,43.811
			c10.215,11.447,24.998,11.196,29.447,11.12c4.653-0.08,18.813,2.437,30.392-11.12C145.32,141.514,144.459,131.409,141.031,111.677
			"/>
	</g>
	<g>
		<defs>
			<path id="SVGID_3_" d="M101.702,73.496c-4.394-0.095-15.007,0.742-19.592,1.059c-5.777,0.398-7.342,1.337-7.342,1.337
				s-5.883,18.584-8.871,35.785c-3.428,19.732-4.588,30.1,7.647,43.812c10.215,11.446,24.999,11.195,29.447,11.119
				c0.646-0.011,1.477,0.029,2.459,0.067c6.081,0.242,17.963,0.485,27.933-11.187c11.936-13.975,11.075-24.079,7.647-43.812
				c-2.988-17.201-8.871-35.785-8.871-35.785s-1.564-0.938-7.341-1.337c-4.342-0.3-15.876-1.065-22.115-1.065
				C102.352,73.49,102.018,73.491,101.702,73.496"/>
		</defs>
		<clipPath id="SVGID_4_">
			<use xlink:href="#SVGID_3_"  overflow="visible"/>
		</clipPath>
		<path clip-path="url(#SVGID_4_)" fill="#B2B2B2" d="M59.795,145.901c0,0,2.675-8.695,13.822-15.384
			c11.148-6.689,19.398-6.689,19.398-6.689s-9.084-5.882-2.608-12.522c4.849-4.973,9.965,0.93,11.08,2.713
			c1.115,1.784,1.338,2.899,1.338,2.899s2.564-7.692,6.801-7.915c6.683-0.353,8.352,3.583,7.684,8.265
			c-0.669,4.682-3.114,5.892-3.114,5.892s12.04,2.899,19.844,8.25c7.804,5.352,10.033,16.723,10.033,16.723
			s-18.06,23.187-39.241,24.302C83.651,173.548,59.795,145.901,59.795,145.901"/>
		<path clip-path="url(#SVGID_4_)" fill="#333333" d="M97.475,116.192c0,1.293-1.049,2.341-2.342,2.341s-2.341-1.048-2.341-2.341
			s1.048-2.341,2.341-2.341S97.475,114.899,97.475,116.192"/>
		<path clip-path="url(#SVGID_4_)" fill="#333333" d="M112.692,116.025c0,1.293-1.049,2.341-2.342,2.341s-2.341-1.048-2.341-2.341
			s1.048-2.341,2.341-2.341S112.692,114.732,112.692,116.025"/>
	</g>
	<g>
		<defs>
			<path id="SVGID_5_" d="M1.189,103.465c0,56.485,45.79,102.276,102.276,102.276c56.485,0,102.276-45.791,102.276-102.276
				S159.95,1.189,103.465,1.189C46.979,1.189,1.189,46.98,1.189,103.465"/>
		</defs>
		<clipPath id="SVGID_6_">
			<use xlink:href="#SVGID_5_"  overflow="visible"/>
		</clipPath>
		<rect x="61.021" y="144.326" clip-path="url(#SVGID_6_)" fill="#333333" width="82.94" height="1.923"/>
		<path clip-path="url(#SVGID_6_)" fill="#231F20" d="M100.573,101.222c0-2.803-2.273-5.075-5.076-5.075s-5.076,2.272-5.076,5.075
			c0,2.804,2.273,5.076,5.076,5.076S100.573,104.026,100.573,101.222"/>
		<path clip-path="url(#SVGID_6_)" fill="#FFFFFF" d="M97.093,101.222c0-0.882-0.715-1.596-1.596-1.596
			c-0.882,0-1.597,0.714-1.597,1.596c0,0.883,0.715,1.597,1.597,1.597C96.378,102.819,97.093,102.105,97.093,101.222"/>
		<path clip-path="url(#SVGID_6_)" fill="#231F20" d="M115.457,101.222c0-2.803-2.272-5.075-5.076-5.075
			c-2.803,0-5.076,2.272-5.076,5.075c0,2.804,2.273,5.076,5.076,5.076C113.185,106.298,115.457,104.026,115.457,101.222"/>
		<path clip-path="url(#SVGID_6_)" fill="#FFFFFF" d="M111.978,101.222c0-0.882-0.715-1.596-1.597-1.596s-1.597,0.714-1.597,1.596
			c0,0.883,0.715,1.597,1.597,1.597S111.978,102.105,111.978,101.222"/>
		<g opacity="0.2" clip-path="url(#SVGID_6_)">
			<g>
				<defs>
					<rect id="SVGID_7_" x="-12.287" y="26.907" width="115.027" height="349.975"/>
				</defs>
				<clipPath id="SVGID_8_">
					<use xlink:href="#SVGID_7_"  overflow="visible"/>
				</clipPath>
				<path clip-path="url(#SVGID_8_)" fill="#FFFFFF" d="M102.74,26.907c-0.733,0.007-1.338,0.038-1.772,0.073
					c-5.319-0.048-18.731,1.848-28.019,20.596C63.612,66.43,62.623,77.976,58.69,96.671c-3.64-2.225-9.124-4.367-14.726-2.051
					c-9.697,4.015-10.701,14.381-3.009,17.057c4.617,1.605,9.587,2.603,13.479,2.715c-0.732,2.702-1.536,5.533-2.443,8.545
					c-11.148,37.011-38.35,68.224-43.254,107.911c-1.764,14.266-1.446,29.913-0.096,44.978c-4.183-1.24-8.313-1.233-11.497,1.397
					c-10.257,8.472-7.136,39.687-2.23,53.509c4.905,13.824,14.715,28.094,14.715,28.094s-14.715-1.785-19.62,4.012
					c-4.904,5.798-0.892,13.378,2.23,13.823c2.475,0.354,50.634,0.428,72.482-0.892h38.019V26.907z"/>
			</g>
		</g>
	</g>
</g>
</svg>
