<?xml version="1.0" encoding="utf-8"?>
<!-- Generator: Adobe Illustrator 16.0.0, SVG Export Plug-In . SVG Version: 6.00 Build 0)  -->
<!DOCTYPE svg PUBLIC "-//W3C//DTD SVG 1.1//EN" "http://www.w3.org/Graphics/SVG/1.1/DTD/svg11.dtd">
<svg version="1.1" id="Layer_1" xmlns="http://www.w3.org/2000/svg" xmlns:xlink="http://www.w3.org/1999/xlink" x="0px" y="0px"
	 width="206.93px" height="206.93px" viewBox="0 0 206.93 206.93" enable-background="new 0 0 206.93 206.93" xml:space="preserve">
<g>
	<g>
		<path fill="#4DCDFF" d="M205.741,103.465c0-56.486-45.791-102.276-102.276-102.276S1.19,46.979,1.19,103.465
			c0,56.485,45.79,102.275,102.275,102.275S205.741,159.95,205.741,103.465"/>
	</g>
	<g>
		<defs>
			<path id="SVGID_1_" d="M1.189,103.465c0,56.485,45.791,102.276,102.276,102.276s102.276-45.791,102.276-102.276
				c0-56.486-45.791-102.276-102.276-102.276S1.189,46.979,1.189,103.465"/>
		</defs>
		<clipPath id="SVGID_2_">
			<use xlink:href="#SVGID_1_"  overflow="visible"/>
		</clipPath>
		<path clip-path="url(#SVGID_2_)" fill="#B85E26" d="M125.558,52.513c0,10.578,8.381,19.154,18.72,19.154
			c10.338,0,18.72-8.576,18.72-19.154c0-10.579-8.382-19.155-18.72-19.155C133.939,33.358,125.558,41.934,125.558,52.513"/>
		<path clip-path="url(#SVGID_2_)" fill="#FFFFFF" d="M131.317,55.557c0,6.013,4.763,10.887,10.64,10.887
			c5.876,0,10.639-4.874,10.639-10.887c0-6.014-4.763-10.888-10.639-10.888C136.079,44.669,131.317,49.543,131.317,55.557"/>
		<path clip-path="url(#SVGID_2_)" fill="#B85E26" d="M79.087,52.513c0,10.578-8.381,19.154-18.72,19.154s-18.72-8.576-18.72-19.154
			c0-10.579,8.381-19.155,18.72-19.155S79.087,41.934,79.087,52.513"/>
		<path clip-path="url(#SVGID_2_)" fill="#FFFFFF" d="M73.329,55.557c0,6.013-4.764,10.887-10.641,10.887
			c-5.876,0-10.639-4.874-10.639-10.887c0-6.014,4.763-10.888,10.639-10.888C68.566,44.669,73.329,49.543,73.329,55.557"/>
		<path clip-path="url(#SVGID_2_)" fill="#FFAC45" d="M156.3,186.864c-0.456-9.741-1.157-15.939-2.45-25.641
			c-1.194-8.963-6.386-20.443-11.024-27.765c-3.177-5.678-11.886-5.772-19.28-6.439c-5.234-0.474-13.039,0.713-17.084,4.288
			c-1.81,1.6-3.188,3.37-4.139,5.306c-0.95-1.936-2.33-3.706-4.139-5.306c-4.044-3.575-11.849-4.762-17.084-4.288
			c-7.394,0.667-16.103,0.762-19.281,6.439c-4.637,7.321-9.829,18.802-11.022,27.765c-1.293,9.701-1.994,15.899-2.451,25.641
			c-0.276,5.905-0.317,12.253,0.408,18.055c0.525,4.194,0.633,4.333,5.289,4.906c5.631,0.692,11.691,0.813,17.373,0.8
			c9.182-0.02,21.225,1.105,30.907,0.91c9.684,0.195,21.726-0.93,30.907-0.91c5.681,0.014,11.742-0.107,17.373-0.8
			c4.656-0.573,4.764-0.712,5.289-4.906C156.617,199.116,156.575,192.769,156.3,186.864"/>
		<path clip-path="url(#SVGID_2_)" fill="#FFC57D" d="M73.042,183.27c0-16.63,16.586-35.381,25.622-42.127
			c0.731-0.546,1.403-0.836,2.563-0.836s1.834,0.29,2.564,0.836c9.036,6.746,25.622,25.497,25.622,42.127
			c0,3.911,0.231,9.01-4.454,10.247c-4.898,1.295-8.403-4.04-11.48-6.748c-0.656,4.756,0.502,9.164-2.566,13.384
			c-2.104,2.893-6.006,5.221-9.565,5.105c-0.001,0.002-0.001,0.004-0.001,0.006c-0.04,0.002-0.08-0.005-0.119-0.003
			c-0.039-0.002-0.078,0.005-0.119,0.003c0-0.002,0-0.004,0-0.006c-3.56,0.115-7.461-2.213-9.565-5.105
			c-3.069-4.22-1.91-8.628-2.567-13.384c-3.076,2.708-6.582,8.043-11.479,6.748C72.81,192.28,73.042,187.181,73.042,183.27"/>
		<path clip-path="url(#SVGID_2_)" fill="#FFAC45" d="M101.759,40.904c0,0,11.029-1.161,24.67,4.063
			c13.64,5.225,20.316,14.803,24.959,23.51c4.644,8.706,6.095,21.477,6.095,21.477s14.803,5.804,20.316,10.158l5.515,4.353
			l-16.253,4.645c0,0,6.965,8.417,8.997,11.028c2.031,2.612,2.902,4.644,2.902,4.644h-13.642c0,0,6.096,9.578,7.256,14.512
			c1.161,4.934,0.871,8.997,0.871,8.997s-13.061-5.224-29.604-4.353c-16.543,0.869-26.991,11.608-33.376,14.221
			s-8.707,2.031-8.707,2.031V40.904z"/>
		<path clip-path="url(#SVGID_2_)" fill="#FFAC45" d="M102.886,40.904c0,0-11.029-1.161-24.67,4.063
			c-13.64,5.225-20.316,14.803-24.959,23.51c-4.645,8.706-6.095,21.477-6.095,21.477s-14.802,5.804-20.315,10.158l-5.516,4.353
			l16.253,4.645c0,0-6.965,8.417-8.997,11.028c-2.03,2.612-2.901,4.644-2.901,4.644h13.641c0,0-6.095,9.578-7.256,14.512
			s-0.871,8.997-0.871,8.997s13.061-5.224,29.604-4.353c16.543,0.869,26.99,11.608,33.375,14.221s8.707,2.031,8.707,2.031V40.904z"
			/>
		<path clip-path="url(#SVGID_2_)" fill="#FFFFFF" d="M172.575,139.291c-0.941-3.997-5.118-11.04-6.672-13.571
			c-13.468-15.4-41.995-17.691-63.58-16.804c-21.586-0.888-50.113,1.403-63.582,16.804c-1.553,2.531-5.73,9.574-6.671,13.571
			c-1.161,4.934-0.87,8.997-0.87,8.997s13.06-5.224,29.603-4.354s26.991,11.609,33.376,14.222c4.641,1.897,7.127,2.108,8.145,2.083
			c1.016,0.025,3.503-0.186,8.143-2.083c6.385-2.612,16.833-13.352,33.376-14.222s29.604,4.354,29.604,4.354
			S173.736,144.225,172.575,139.291"/>
		<path clip-path="url(#SVGID_2_)" d="M142.619,92.738c0.059-2.507,3.983-6.434,5.388-8.508c1.726-2.545,3.749-5.024,5.645-7.391
			c0.222-0.278,0.478-0.65,0.76-0.983c1.288,4.036,2.101,8.007,2.564,10.702c-2.294,1.372-5.461,2.32-7.049,3.098
			C147.552,90.819,145.037,91.752,142.619,92.738"/>
		<path clip-path="url(#SVGID_2_)" d="M140.482,79.376c0.255-1.724,8.035-9.459,10.769-11.153c0.046,0.084,0.094,0.169,0.139,0.253
			c0.898,1.686,1.678,3.525,2.35,5.395c-1.869,1.106-4.325,1.879-5.978,2.683C145.649,77.579,142.819,79.282,140.482,79.376"/>
		<path clip-path="url(#SVGID_2_)" d="M110.46,67.923c-1.596-6.461-2.415-13.248-3.308-19.868c-0.305-2.255-0.518-4.821-0.908-7.231
			c2.691,0.085,6.438,0.413,10.83,1.363c-0.441,4.817-1.768,9.521-2.981,14.206C113.102,60.218,112.258,64.406,110.46,67.923"/>
		<path clip-path="url(#SVGID_2_)" fill="#231F20" d="M116.259,98.748c0-2.952,2.393-5.345,5.345-5.345
			c2.951,0,5.344,2.393,5.344,5.345s-2.393,5.345-5.344,5.345C118.652,104.093,116.259,101.7,116.259,98.748"/>
		<path clip-path="url(#SVGID_2_)" fill="#FFFFFF" d="M119.923,98.748c0-0.928,0.752-1.681,1.681-1.681
			c0.928,0,1.68,0.753,1.68,1.681s-0.752,1.681-1.68,1.681C120.675,100.429,119.923,99.676,119.923,98.748"/>
		<path clip-path="url(#SVGID_2_)" fill="#231F20" d="M102.61,119.423c1.718,0,7.483-0.701,8.39,1.069
			c0.991,1.936-3.31,5.7-4.531,6.624c-1.306,0.987-2.26,1.262-3.717,1.899C101.807,126.385,103.205,122.561,102.61,119.423"/>
		<path clip-path="url(#SVGID_2_)" fill="#231F20" d="M102.383,128.252c-0.551,6.063,1.59,12.695,7.506,15.375
			c5.497,2.49,13.748,1.306,18.477-2.313c0.626-0.479-0.167-1.412-0.793-0.934c-4.236,3.242-11.567,4.263-16.591,2.376
			c-5.802-2.18-7.876-8.592-7.394-14.284C103.654,127.696,102.454,127.465,102.383,128.252"/>
		
			<path clip-path="url(#SVGID_2_)" fill="none" stroke="#B85E26" stroke-width="1.225" stroke-linecap="round" stroke-linejoin="round" stroke-miterlimit="10" d="
			M117.936,120.15c17.728-1.682,35.882,1.377,52.078,8.776"/>
		
			<path clip-path="url(#SVGID_2_)" fill="none" stroke="#B85E26" stroke-width="1.225" stroke-linecap="round" stroke-linejoin="round" stroke-miterlimit="10" d="
			M117.885,125.972c21.784,2.89,42.96,10.277,61.813,21.565"/>
		
			<path clip-path="url(#SVGID_2_)" fill="none" stroke="#B85E26" stroke-width="1.225" stroke-linecap="round" stroke-linejoin="round" stroke-miterlimit="10" d="
			M116.972,130.939c24.188,9.438,45.925,25.08,62.56,45.016"/>
		<path clip-path="url(#SVGID_2_)" d="M62.026,92.738c-0.059-2.507-3.983-6.434-5.388-8.508c-1.725-2.545-3.749-5.024-5.645-7.391
			c-0.222-0.278-0.478-0.65-0.76-0.983c-1.287,4.036-2.101,8.007-2.564,10.702c2.293,1.372,5.461,2.32,7.049,3.098
			C57.093,90.819,59.608,91.752,62.026,92.738"/>
		<path clip-path="url(#SVGID_2_)" d="M64.163,79.376c-0.255-1.724-8.035-9.459-10.769-11.153c-0.046,0.084-0.093,0.169-0.138,0.253
			c-0.899,1.686-1.679,3.525-2.351,5.395c1.869,1.106,4.325,1.879,5.978,2.683C58.996,77.579,61.826,79.282,64.163,79.376"/>
		<path clip-path="url(#SVGID_2_)" d="M94.185,67.923c1.596-6.461,2.415-13.248,3.309-19.868c0.304-2.255,0.517-4.821,0.908-7.231
			c-2.693,0.085-6.438,0.413-10.83,1.363c0.44,4.817,1.767,9.521,2.98,14.206C91.542,60.218,92.387,64.406,94.185,67.923"/>
		<path clip-path="url(#SVGID_2_)" fill="#231F20" d="M89.392,98.748c0-2.952-2.393-5.345-5.346-5.345
			c-2.95,0-5.344,2.393-5.344,5.345s2.394,5.345,5.344,5.345C86.999,104.093,89.392,101.7,89.392,98.748"/>
		<path clip-path="url(#SVGID_2_)" fill="#FFFFFF" d="M85.728,98.748c0-0.928-0.753-1.681-1.681-1.681
			c-0.929,0-1.681,0.753-1.681,1.681s0.752,1.681,1.681,1.681C84.975,100.429,85.728,99.676,85.728,98.748"/>
		<path clip-path="url(#SVGID_2_)" fill="#231F20" d="M103.541,119.372c-1.718,0-8.988-0.65-9.896,1.12
			c-0.992,1.936,3.309,5.7,4.532,6.624c1.306,0.987,2.987,1.647,4.444,2.285C103.568,126.771,102.945,122.51,103.541,119.372"/>
		<path clip-path="url(#SVGID_2_)" fill="#231F20" d="M101.05,128.416c0.518,5.729-1.598,12.19-7.438,14.362
			c-5.038,1.873-12.354,0.807-16.585-2.433c-0.627-0.479-1.327,0.525-0.702,1.003c4.712,3.607,13.02,4.779,18.48,2.257
			c5.871-2.713,7.978-9.252,7.464-15.297C102.202,127.525,100.979,127.63,101.05,128.416"/>
		
			<path clip-path="url(#SVGID_2_)" fill="none" stroke="#B85E26" stroke-width="1.225" stroke-linecap="round" stroke-linejoin="round" stroke-miterlimit="10" d="
			M86.708,120.15c-17.727-1.682-35.881,1.377-52.077,8.776"/>
		
			<path clip-path="url(#SVGID_2_)" fill="none" stroke="#B85E26" stroke-width="1.225" stroke-linecap="round" stroke-linejoin="round" stroke-miterlimit="10" d="
			M86.761,125.972c-21.785,2.89-42.961,10.277-61.814,21.565"/>
		
			<path clip-path="url(#SVGID_2_)" fill="none" stroke="#B85E26" stroke-width="1.225" stroke-linecap="round" stroke-linejoin="round" stroke-miterlimit="10" d="
			M87.673,130.939c-24.188,9.438-45.925,25.08-62.559,45.016"/>
		<g opacity="0.2" clip-path="url(#SVGID_2_)">
			<g>
				<defs>
					<rect id="SVGID_3_" x="21.331" y="33.357" width="80.5" height="178.194"/>
				</defs>
				<clipPath id="SVGID_4_">
					<use xlink:href="#SVGID_3_"  overflow="visible"/>
				</clipPath>
				<path clip-path="url(#SVGID_4_)" fill="#FFFFFF" d="M101.831,40.834c-1.054-0.047-2.865-0.075-5.245,0.079
					c-0.176,0.012-0.349,0.023-0.53,0.036c-0.278,0.021-0.563,0.045-0.854,0.071c-0.206,0.019-0.417,0.04-0.63,0.061
					c-0.303,0.03-0.604,0.061-0.919,0.096c-0.204,0.024-0.421,0.055-0.63,0.08c-0.572,0.072-1.162,0.155-1.772,0.25
					c-0.245,0.038-0.489,0.076-0.739,0.118c-0.347,0.059-0.697,0.12-1.054,0.187c-0.265,0.049-0.535,0.103-0.806,0.155
					c-3.172,0.628-6.698,1.568-10.436,2.999c-0.188,0.073-0.363,0.155-0.55,0.229c-2.81-6.947-9.494-11.838-17.299-11.838
					c-10.339,0-18.72,8.576-18.72,19.154c0,7.719,4.471,14.353,10.897,17.387c-0.188,0.395-0.37,0.795-0.546,1.2
					c-0.003,0.006-0.005,0.012-0.007,0.017c-0.39,0.9-0.75,1.823-1.085,2.753l-0.001,0.002c-0.238,0.66-0.461,1.323-0.673,1.985
					v0.002c-0.805,2.521-1.424,5.015-1.889,7.19c0,0.002,0,0.004,0,0.005c-0.092,0.429-0.177,0.843-0.257,1.243
					c-0.003,0.017-0.006,0.032-0.01,0.048c-0.653,3.309-0.916,5.608-0.916,5.608s-14.802,5.804-20.315,10.158l-5.516,4.353
					l16.253,4.645c0,0-6.965,8.417-8.997,11.028c-2.031,2.612-2.901,4.644-2.901,4.644h13.641c0,0-0.24,0.377-0.625,1.006
					c-0.094,0.154-0.196,0.32-0.307,0.504c-0.047,0.078-0.099,0.164-0.149,0.247c-0.045,0.075-0.088,0.147-0.135,0.226
					c-1.253,0.514-2.5,1.044-3.734,1.606c-0.307,0.141-0.441,0.504-0.302,0.811c0.104,0.227,0.325,0.359,0.557,0.359
					c0.086,0,0.174-0.018,0.256-0.056c0.724-0.331,1.455-0.643,2.186-0.955c-0.067,0.115-0.135,0.233-0.203,0.353
					c-0.048,0.085-0.094,0.164-0.143,0.249c-0.185,0.325-0.373,0.66-0.564,1.003c-0.045,0.082-0.09,0.166-0.135,0.248
					c-0.147,0.267-0.294,0.535-0.442,0.809c-0.065,0.124-0.132,0.249-0.198,0.374c-0.129,0.241-0.258,0.483-0.385,0.729
					c-0.068,0.134-0.138,0.267-0.207,0.399c-0.136,0.266-0.269,0.532-0.401,0.799c-0.053,0.105-0.106,0.212-0.158,0.318
					c-0.182,0.371-0.36,0.741-0.53,1.109c-0.023,0.053-0.046,0.104-0.069,0.157c-0.143,0.31-0.279,0.618-0.409,0.921
					c-0.05,0.116-0.097,0.229-0.144,0.342c-0.101,0.242-0.195,0.479-0.287,0.712c-0.047,0.122-0.093,0.242-0.137,0.36
					c-0.085,0.232-0.163,0.456-0.237,0.678c-0.032,0.102-0.069,0.205-0.101,0.306c-0.097,0.312-0.184,0.614-0.251,0.898
					c-0.145,0.617-0.268,1.22-0.371,1.803c-0.13,0.736-0.227,1.437-0.302,2.097c-2.288,1.222-4.546,2.493-6.764,3.821
					c-0.291,0.175-0.387,0.551-0.212,0.841c0.115,0.191,0.317,0.298,0.525,0.298c0.108,0,0.217-0.028,0.315-0.087
					c1.969-1.18,3.972-2.307,5.996-3.401c-0.009,0.112-0.019,0.229-0.024,0.337c-0.014,0.224-0.026,0.437-0.035,0.642
					c-0.018,0.407-0.027,0.776-0.03,1.102c-0.002,0.162-0.002,0.314-0.002,0.453c0.004,0.696,0.032,1.093,0.032,1.093
					s2.5-1,6.698-2.052c0.299-0.075,0.607-0.151,0.925-0.227c0.634-0.15,1.301-0.301,1.999-0.447
					c2.443-0.517,5.27-0.993,8.377-1.315c0.888-0.091,1.798-0.171,2.73-0.234c1.396-0.095,2.84-0.155,4.321-0.172
					c0.007,0,0.015,0,0.021,0c-0.637,1.404-1.246,2.838-1.815,4.285c-11.058,7.793-21.11,17.009-29.812,27.437
					c-0.216,0.26-0.182,0.646,0.078,0.861c0.114,0.097,0.254,0.144,0.392,0.144c0.175,0,0.35-0.075,0.471-0.22
					c8.244-9.882,17.707-18.675,28.099-26.182c-1.379,3.805-2.43,7.615-2.888,11.057c-1.293,9.701-1.993,15.899-2.45,25.641
					c-0.275,5.905-0.317,12.253,0.408,18.055c0.525,4.194,0.633,4.333,5.29,4.906c5.63,0.692,11.69,0.813,17.372,0.8
					c9.03-0.02,20.816,1.063,30.416,0.912V40.834z"/>
			</g>
		</g>
	</g>
</g>
</svg>
